<svg version="1.1" id="Layer_1" xmlns="http://www.w3.org/2000/svg" xmlns:xlink="http://www.w3.org/1999/xlink" x="0px" y="0px"
	 width="100%" viewBox="0 0 1024 1024" enable-background="new 0 0 1024 1024" xml:space="preserve">
<path fill="#000000" opacity="1.000000" stroke="none" 
	d="
M594.000000,1025.000000 
	C396.000000,1025.000000 198.500000,1025.000000 1.000000,1025.000000 
	C1.000000,683.666687 1.000000,342.333344 1.000000,1.000000 
	C342.333344,1.000000 683.666687,1.000000 1025.000000,1.000000 
	C1025.000000,342.333344 1025.000000,683.666687 1025.000000,1025.000000 
	C881.500000,1025.000000 738.000000,1025.000000 594.000000,1025.000000 
M408.647400,736.848145 
	C420.538879,749.103271 434.178284,758.961914 449.750183,765.944397 
	C476.299286,777.848938 503.997620,780.708923 532.646362,776.091309 
	C561.737915,771.402283 585.800598,757.885986 604.953735,735.583679 
	C619.100891,719.110352 626.897766,699.792053 630.468689,678.533386 
	C634.054321,657.187195 632.074158,636.675476 621.767090,617.383911 
	C620.388062,614.802856 620.132263,612.857483 621.363586,610.197510 
	C627.960510,595.947205 631.543030,580.882935 631.912048,565.223450 
	C632.654968,533.700867 619.442627,508.626862 595.675232,488.581116 
	C580.537354,475.813660 563.334167,466.321991 545.996277,457.056061 
	C518.314880,442.262238 490.270508,428.118774 462.944458,412.699371 
	C445.290924,402.737885 428.971619,390.632294 417.007111,373.652710 
	C415.487122,371.495667 415.271118,370.091156 416.630157,367.693390 
	C424.454041,353.889984 434.694855,342.269745 447.541443,333.021301 
	C472.953491,314.726776 501.221405,306.992706 532.211182,312.373871 
	C562.154602,317.573303 585.642212,334.226807 605.359558,356.692627 
	C608.924011,360.753967 614.128906,361.711029 617.635071,358.746063 
	C620.928711,355.960785 621.230408,350.482147 617.507263,346.895752 
	C608.773682,338.482819 600.276428,329.659882 590.647888,322.371033 
	C559.290344,298.633392 524.435059,289.010498 485.425690,298.696503 
	C452.613831,306.843658 426.587006,324.847382 407.404419,352.860870 
	C407.107788,352.345032 406.835815,351.965912 406.661316,351.546234 
	C406.410400,350.942993 406.184601,350.321686 406.026917,349.688477 
	C402.198029,334.311340 403.692535,319.091522 407.660461,304.021484 
	C421.941345,249.783249 473.237061,215.275665 533.109680,225.380569 
	C561.686707,230.203598 585.833496,243.932358 603.352539,267.854828 
	C606.726379,272.461884 611.321411,273.572266 615.317688,270.955475 
	C619.069763,268.498413 619.846863,263.286469 616.004211,258.722992 
	C610.040466,251.640457 603.996643,244.389389 596.886841,238.548676 
	C566.135559,213.286591 531.004456,202.978531 491.462189,209.922852 
	C449.890472,217.223587 419.254578,239.881531 400.756592,277.702393 
	C386.493530,306.864532 382.988861,337.192230 396.039307,368.124451 
	C396.671326,369.622437 396.064209,371.814575 395.607849,373.572815 
	C392.477722,385.632050 387.519409,397.498444 386.354462,409.732117 
	C383.118286,443.715393 396.452026,471.257904 422.269897,493.205933 
	C445.466553,512.925659 471.422699,528.236572 498.401611,542.035156 
	C521.387817,553.791626 544.781067,564.812744 565.920288,579.911194 
	C578.955811,589.221680 591.622864,598.823181 600.227783,612.690857 
	C600.904236,613.781067 601.239014,615.797119 600.689087,616.824219 
	C595.139160,627.189819 587.750610,636.167847 578.572571,643.465576 
	C548.608704,667.290894 514.758301,672.974976 478.021851,664.349304 
	C448.127258,657.330078 425.427826,639.749817 407.003571,615.861694 
	C405.480652,613.887146 403.165649,611.454102 401.052063,611.282227 
	C398.554413,611.079041 395.148499,612.441040 393.442566,614.314209 
	C390.761810,617.257874 391.429504,621.076843 393.903778,624.293213 
	C419.918884,658.110779 452.828186,679.516907 496.411560,683.213562 
	C524.619202,685.606140 550.458740,679.664917 574.602905,665.349854 
	C589.263000,656.657898 601.077271,644.951172 610.626831,630.533569 
	C611.208618,631.566895 611.685242,632.237488 611.989014,632.978943 
	C617.468079,646.355652 616.724609,660.180725 615.041382,674.108643 
	C611.714539,701.636658 599.279175,724.195923 577.085388,740.674683 
	C544.940063,764.542358 508.916962,767.703369 471.439972,757.202942 
	C444.085388,749.538574 422.258392,733.436951 406.554230,709.462646 
	C403.351227,704.572876 398.794250,703.595032 394.791351,706.831604 
	C391.549377,709.453003 390.740936,714.039917 393.626038,718.001160 
	C398.214081,724.300537 403.289581,730.244995 408.647400,736.848145 
M385.233002,834.293213 
	C370.472931,823.379639 356.962799,811.200684 345.245789,796.953491 
	C311.360931,755.751587 293.930176,708.717957 293.992279,655.274902 
	C294.043976,610.782837 294.002960,566.290588 294.001831,521.798462 
	C294.001770,520.465515 294.192078,519.093140 293.942810,517.807129 
	C293.220612,514.081177 291.136078,511.462189 287.172729,511.035065 
	C283.113342,510.597687 279.883942,511.896545 278.953857,516.329163 
	C278.448853,518.735779 278.053589,521.219788 278.050446,523.669373 
	C277.992645,568.494751 278.015381,613.320129 277.989716,658.145569 
	C277.980652,673.959351 279.506348,689.581665 282.887207,705.060364 
	C294.554871,758.478271 321.647705,802.668518 363.442230,837.538330 
	C401.142914,868.992737 444.632843,887.129089 493.867401,891.193604 
	C519.250427,893.289124 544.225586,891.499023 568.880737,885.374878 
	C619.677368,872.757446 661.856812,846.179016 694.770813,805.579285 
	C729.161438,763.158203 747.914246,714.709106 747.990356,659.638367 
	C748.053894,613.646545 748.003418,567.654602 748.003357,521.662720 
	C748.003357,520.496277 748.429626,519.078918 747.920227,518.211243 
	C746.495667,515.784607 745.123413,512.567383 742.892151,511.603912 
	C740.950745,510.765656 736.880920,511.760406 735.520142,513.406799 
	C733.528442,515.816650 732.185486,519.527832 732.171021,522.691711 
	C731.962769,568.349365 732.310486,614.011292 731.837708,659.664978 
	C731.702881,672.684021 730.421692,685.889954 727.869507,698.650879 
	C716.480957,755.593384 686.800476,801.144287 639.902466,835.217896 
	C609.326904,857.432495 574.838867,870.377930 537.367188,874.824341 
	C517.673706,877.161133 497.941498,876.402283 478.266235,873.134644 
	C444.406219,867.511169 413.730682,854.501526 385.233002,834.293213 
M278.001007,446.466370 
	C278.008545,449.465668 277.282867,452.721436 278.218536,455.396057 
	C279.270477,458.403229 281.344238,461.590088 283.904327,463.325989 
	C285.380249,464.326752 289.521118,463.415405 290.974731,461.919250 
	C292.785583,460.055389 293.868591,456.705261 293.881012,453.990570 
	C294.058838,415.163544 294.055023,376.335388 293.985809,337.507690 
	C293.933655,308.272308 299.333313,280.077850 310.030365,252.917480 
	C324.684540,215.709778 346.884766,183.847580 378.313171,158.874695 
	C412.261719,131.899323 450.968445,116.657082 494.227386,112.821777 
	C517.409302,110.766479 540.275879,112.224495 562.887512,117.602600 
	C608.356750,128.417328 646.396179,151.541702 676.661377,187.143921 
	C712.308228,229.076874 730.840881,277.784973 731.856140,332.729370 
	C732.601013,373.043365 732.009338,413.381897 732.035400,453.709473 
	C732.039368,459.767303 735.564514,464.031586 740.400696,464.002808 
	C745.450867,463.972748 748.002197,460.634521 748.002563,454.028656 
	C748.004700,415.200836 747.952515,376.372925 748.027222,337.545258 
	C748.058960,321.057526 746.304810,304.805695 743.144287,288.618835 
	C734.181702,242.715897 713.679382,202.581390 681.866272,168.588074 
	C641.619019,125.582626 591.580261,101.590042 532.965210,96.205666 
	C509.063202,94.010040 485.107330,95.623405 461.709198,101.203583 
	C407.380249,114.160408 362.414764,142.162247 328.660370,186.944489 
	C296.146667,230.080704 278.651550,278.752747 278.078583,332.993744 
	C277.682556,370.484253 278.001862,407.982300 278.001007,446.466370 
z"/>
<path fill="#FDFDFD" opacity="1.000000" stroke="none" 
	d="
M408.403137,736.593872 
	C403.289581,730.244995 398.214081,724.300537 393.626038,718.001160 
	C390.740936,714.039917 391.549377,709.453003 394.791351,706.831604 
	C398.794250,703.595032 403.351227,704.572876 406.554230,709.462646 
	C422.258392,733.436951 444.085388,749.538574 471.439972,757.202942 
	C508.916962,767.703369 544.940063,764.542358 577.085388,740.674683 
	C599.279175,724.195923 611.714539,701.636658 615.041382,674.108643 
	C616.724609,660.180725 617.468079,646.355652 611.989014,632.978943 
	C611.685242,632.237488 611.208618,631.566895 610.626831,630.533569 
	C601.077271,644.951172 589.263000,656.657898 574.602905,665.349854 
	C550.458740,679.664917 524.619202,685.606140 496.411560,683.213562 
	C452.828186,679.516907 419.918884,658.110779 393.903778,624.293213 
	C391.429504,621.076843 390.761810,617.257874 393.442566,614.314209 
	C395.148499,612.441040 398.554413,611.079041 401.052063,611.282227 
	C403.165649,611.454102 405.480652,613.887146 407.003571,615.861694 
	C425.427826,639.749817 448.127258,657.330078 478.021851,664.349304 
	C514.758301,672.974976 548.608704,667.290894 578.572571,643.465576 
	C587.750610,636.167847 595.139160,627.189819 600.689087,616.824219 
	C601.239014,615.797119 600.904236,613.781067 600.227783,612.690857 
	C591.622864,598.823181 578.955811,589.221680 565.920288,579.911194 
	C544.781067,564.812744 521.387817,553.791626 498.401611,542.035156 
	C471.422699,528.236572 445.466553,512.925659 422.269897,493.205933 
	C396.452026,471.257904 383.118286,443.715393 386.354462,409.732117 
	C387.519409,397.498444 392.477722,385.632050 395.607849,373.572815 
	C396.064209,371.814575 396.671326,369.622437 396.039307,368.124451 
	C382.988861,337.192230 386.493530,306.864532 400.756592,277.702393 
	C419.254578,239.881531 449.890472,217.223587 491.462189,209.922852 
	C531.004456,202.978531 566.135559,213.286591 596.886841,238.548676 
	C603.996643,244.389389 610.040466,251.640457 616.004211,258.722992 
	C619.846863,263.286469 619.069763,268.498413 615.317688,270.955475 
	C611.321411,273.572266 606.726379,272.461884 603.352539,267.854828 
	C585.833496,243.932358 561.686707,230.203598 533.109680,225.380569 
	C473.237061,215.275665 421.941345,249.783249 407.660461,304.021484 
	C403.692535,319.091522 402.198029,334.311340 406.026917,349.688477 
	C406.184601,350.321686 406.410400,350.942993 406.661316,351.546234 
	C406.835815,351.965912 407.107788,352.345032 407.404419,352.860870 
	C426.587006,324.847382 452.613831,306.843658 485.425690,298.696503 
	C524.435059,289.010498 559.290344,298.633392 590.647888,322.371033 
	C600.276428,329.659882 608.773682,338.482819 617.507263,346.895752 
	C621.230408,350.482147 620.928711,355.960785 617.635071,358.746063 
	C614.128906,361.711029 608.924011,360.753967 605.359558,356.692627 
	C585.642212,334.226807 562.154602,317.573303 532.211182,312.373871 
	C501.221405,306.992706 472.953491,314.726776 447.541443,333.021301 
	C434.694855,342.269745 424.454041,353.889984 416.630157,367.693390 
	C415.271118,370.091156 415.487122,371.495667 417.007111,373.652710 
	C428.971619,390.632294 445.290924,402.737885 462.944458,412.699371 
	C490.270508,428.118774 518.314880,442.262238 545.996277,457.056061 
	C563.334167,466.321991 580.537354,475.813660 595.675232,488.581116 
	C619.442627,508.626862 632.654968,533.700867 631.912048,565.223450 
	C631.543030,580.882935 627.960510,595.947205 621.363586,610.197510 
	C620.132263,612.857483 620.388062,614.802856 621.767090,617.383911 
	C632.074158,636.675476 634.054321,657.187195 630.468689,678.533386 
	C626.897766,699.792053 619.100891,719.110352 604.953735,735.583679 
	C585.800598,757.885986 561.737915,771.402283 532.646362,776.091309 
	C503.997620,780.708923 476.299286,777.848938 449.750183,765.944397 
	C434.178284,758.961914 420.538879,749.103271 408.403137,736.593872 
M615.473206,572.834290 
	C617.230713,558.576050 615.387329,544.885437 609.428040,531.723511 
	C600.793884,512.653564 586.153259,499.011993 568.564209,488.913910 
	C542.454468,473.924042 515.711731,460.026428 489.107086,445.911530 
	C459.238770,430.065186 429.513550,414.090637 407.558807,387.153625 
	C395.214935,417.631714 401.918793,451.130676 424.987946,474.146637 
	C438.341949,487.469910 453.658905,498.389099 469.906219,507.693451 
	C493.707611,521.323730 518.207031,533.728821 542.243225,546.957397 
	C562.251282,557.969116 582.256531,569.081909 598.338379,585.794312 
	C602.114624,589.718689 605.748291,593.780273 610.299194,598.699158 
	C612.062988,589.742859 613.642517,581.722534 615.473206,572.834290 
z"/>
<path fill="#FDFDFD" opacity="1.000000" stroke="none" 
	d="
M385.518616,834.513000 
	C413.730682,854.501526 444.406219,867.511169 478.266235,873.134644 
	C497.941498,876.402283 517.673706,877.161133 537.367188,874.824341 
	C574.838867,870.377930 609.326904,857.432495 639.902466,835.217896 
	C686.800476,801.144287 716.480957,755.593384 727.869507,698.650879 
	C730.421692,685.889954 731.702881,672.684021 731.837708,659.664978 
	C732.310486,614.011292 731.962769,568.349365 732.171021,522.691711 
	C732.185486,519.527832 733.528442,515.816650 735.520142,513.406799 
	C736.880920,511.760406 740.950745,510.765656 742.892151,511.603912 
	C745.123413,512.567383 746.495667,515.784607 747.920227,518.211243 
	C748.429626,519.078918 748.003357,520.496277 748.003357,521.662720 
	C748.003418,567.654602 748.053894,613.646545 747.990356,659.638367 
	C747.914246,714.709106 729.161438,763.158203 694.770813,805.579285 
	C661.856812,846.179016 619.677368,872.757446 568.880737,885.374878 
	C544.225586,891.499023 519.250427,893.289124 493.867401,891.193604 
	C444.632843,887.129089 401.142914,868.992737 363.442230,837.538330 
	C321.647705,802.668518 294.554871,758.478271 282.887207,705.060364 
	C279.506348,689.581665 277.980652,673.959351 277.989716,658.145569 
	C278.015381,613.320129 277.992645,568.494751 278.050446,523.669373 
	C278.053589,521.219788 278.448853,518.735779 278.953857,516.329163 
	C279.883942,511.896545 283.113342,510.597687 287.172729,511.035065 
	C291.136078,511.462189 293.220612,514.081177 293.942810,517.807129 
	C294.192078,519.093140 294.001770,520.465515 294.001831,521.798462 
	C294.002960,566.290588 294.043976,610.782837 293.992279,655.274902 
	C293.930176,708.717957 311.360931,755.751587 345.245789,796.953491 
	C356.962799,811.200684 370.472931,823.379639 385.518616,834.513000 
z"/>
<path fill="#FDFDFD" opacity="1.000000" stroke="none" 
	d="
M278.001251,445.971680 
	C278.001862,407.982300 277.682556,370.484253 278.078583,332.993744 
	C278.651550,278.752747 296.146667,230.080704 328.660370,186.944489 
	C362.414764,142.162247 407.380249,114.160408 461.709198,101.203583 
	C485.107330,95.623405 509.063202,94.010040 532.965210,96.205666 
	C591.580261,101.590042 641.619019,125.582626 681.866272,168.588074 
	C713.679382,202.581390 734.181702,242.715897 743.144287,288.618835 
	C746.304810,304.805695 748.058960,321.057526 748.027222,337.545258 
	C747.952515,376.372925 748.004700,415.200836 748.002563,454.028656 
	C748.002197,460.634521 745.450867,463.972748 740.400696,464.002808 
	C735.564514,464.031586 732.039368,459.767303 732.035400,453.709473 
	C732.009338,413.381897 732.601013,373.043365 731.856140,332.729370 
	C730.840881,277.784973 712.308228,229.076874 676.661377,187.143921 
	C646.396179,151.541702 608.356750,128.417328 562.887512,117.602600 
	C540.275879,112.224495 517.409302,110.766479 494.227386,112.821777 
	C450.968445,116.657082 412.261719,131.899323 378.313171,158.874695 
	C346.884766,183.847580 324.684540,215.709778 310.030365,252.917480 
	C299.333313,280.077850 293.933655,308.272308 293.985809,337.507690 
	C294.055023,376.335388 294.058838,415.163544 293.881012,453.990570 
	C293.868591,456.705261 292.785583,460.055389 290.974731,461.919250 
	C289.521118,463.415405 285.380249,464.326752 283.904327,463.325989 
	C281.344238,461.590088 279.270477,458.403229 278.218536,455.396057 
	C277.282867,452.721436 278.008545,449.465668 278.001251,445.971680 
z"/>
<path fill="#010101" opacity="1.000000" stroke="none" 
	d="
M615.347656,573.268188 
	C613.642517,581.722534 612.062988,589.742859 610.299194,598.699158 
	C605.748291,593.780273 602.114624,589.718689 598.338379,585.794312 
	C582.256531,569.081909 562.251282,557.969116 542.243225,546.957397 
	C518.207031,533.728821 493.707611,521.323730 469.906219,507.693451 
	C453.658905,498.389099 438.341949,487.469910 424.987946,474.146637 
	C401.918793,451.130676 395.214935,417.631714 407.558807,387.153625 
	C429.513550,414.090637 459.238770,430.065186 489.107086,445.911530 
	C515.711731,460.026428 542.454468,473.924042 568.564209,488.913910 
	C586.153259,499.011993 600.793884,512.653564 609.428040,531.723511 
	C615.387329,544.885437 617.230713,558.576050 615.347656,573.268188 
z"/>
</svg>